<svg xmlns="http://www.w3.org/2000/svg" version="1.0" width="333.000000pt" height="353.000000pt" viewBox="0 0 333.000000 353.000000" preserveAspectRatio="xMidYMid meet">

<g transform="translate(0.000000,353.000000) scale(0.100000,-0.100000)" fill="#f1a501" stroke="none">
<path d="M1469 3225 c-207 -34 -469 -123 -469 -160 0 -12 17 -26 299 -245 l224 -174 -61 -58 c-98 -92 -104 -94 -149 -67 -32 19 -477 355 -524 396 -14 11 -26 4 -92 -54 -236 -209 -404 -510 -463 -828 -25 -139 -15 -461 19 -607 58 -242 176 -465 351 -661 76 -85 174 -167 201 -167 23 0 89 51 406 307 123 99 352 284 509 409 318 254 494 399 528 437 l23 25 -116 88 c-227 172 -315 244 -315 257 0 28 162 153 182 141 7 -4 63 -47 123 -94 61 -47 174 -134 253 -194 150 -113 188 -153 198 -203 11 -55 57 -17 -1281 -1085 -190 -151 -275 -225 -275 -239 0 -22 254 -110 373 -129 51 -9 154 -11 324 -7 210 4 260 8 326 25 77 21 293 107 312 124 6 6 2 15 -12 26 -11 9 -117 92 -235 184 -117 92 -224 178 -237 192 l-23 24 78 66 c42 36 85 66 94 66 21 0 65 -29 173 -115 158 -125 382 -295 390 -295 4 0 59 51 121 113 171 171 289 364 370 608 47 141 60 240 59 464 0 161 -3 205 -22 290 -41 179 -112 342 -218 503 -53 80 -275 322 -316 343 -23 13 -39 3 -257 -166 -178 -139 -1130 -901 -1194 -957 -24 -21 -37 -39 -32 -46 4 -7 99 -84 211 -172 112 -88 207 -165 210 -171 4 -6 -1 -20 -12 -31 -32 -36 -134 -108 -154 -108 -26 0 -49 15 -204 134 -71 55 -157 120 -190 145 -32 25 -88 72 -122 104 -61 57 -63 61 -63 109 0 43 4 53 33 79 25 24 1087 877 1459 1173 l77 61 -35 18 c-63 32 -267 95 -364 112 -131 23 -382 28 -491 10z" fill="#f1a501"/>
</g>
</svg>